<?xml version="1.0" standalone="no"?>
<!DOCTYPE svg PUBLIC "-//W3C//DTD SVG 20010904//EN"
 "http://www.w3.org/TR/2001/REC-SVG-20010904/DTD/svg10.dtd">
<svg version="1.0" xmlns="http://www.w3.org/2000/svg"
 width="256.000000pt" height="256.000000pt" viewBox="0 0 256.000000 256.000000"
 preserveAspectRatio="xMidYMid meet">
<metadata>
Created by potrace 1.14, written by Peter Selinger 2001-2017
</metadata>
<g transform="translate(0.000000,256.000000) scale(0.100000,-0.100000)"
fill="#000000" stroke="none">
<path d="M1128 2331 c4 -10 1 -13 -12 -8 -17 7 -54 -9 -68 -28 -4 -5 -10 -6
-14 -2 -4 4 -13 -1 -20 -11 -9 -13 -22 -17 -43 -14 -20 3 -31 0 -31 -7 0 -7
-4 -10 -9 -6 -5 3 -12 1 -16 -5 -3 -5 -17 -10 -30 -10 -14 0 -29 -9 -35 -20
-6 -11 -18 -20 -26 -20 -9 0 -12 -5 -8 -12 5 -10 4 -10 -5 -2 -10 9 -21 3 -47
-24 -19 -19 -34 -39 -34 -44 0 -4 -6 -8 -13 -8 -8 0 -20 -12 -28 -26 -7 -14
-26 -37 -42 -50 -15 -13 -30 -36 -33 -50 -3 -14 -16 -58 -30 -97 -58 -168 -63
-215 -42 -390 13 -102 13 -108 -5 -120 -20 -13 -31 -65 -30 -142 0 -39 51
-156 73 -170 6 -4 22 -24 36 -46 17 -27 34 -42 54 -45 25 -5 32 -14 46 -58 19
-57 51 -112 82 -139 15 -14 21 -36 26 -90 7 -69 5 -75 -29 -138 -24 -46 -44
-70 -64 -78 -16 -7 -54 -34 -86 -61 -33 -28 -119 -80 -199 -120 -443 -224
-441 -222 -444 -257 l-3 -33 471 0 471 0 -12 22 c-7 13 -14 35 -15 49 -3 24 0
27 34 31 30 4 44 -1 72 -24 54 -44 62 -37 33 28 -9 22 -17 44 -18 49 -1 6 -8
26 -17 44 -9 19 -14 41 -11 48 3 7 1 19 -5 26 -5 6 -13 33 -16 59 -4 26 -11
50 -16 53 -11 7 0 45 14 45 6 0 45 -36 86 -80 42 -44 84 -80 93 -80 20 0 22
21 5 38 -13 13 -4 16 38 13 39 -3 35 26 -12 74 -37 39 -44 53 -41 78 3 31 4
31 98 46 91 15 213 65 241 98 6 7 15 13 21 13 5 0 26 12 46 27 20 16 39 27 44
25 4 -1 12 9 17 22 5 13 13 27 19 30 6 4 6 18 1 38 -5 17 -7 35 -4 39 15 25
-18 3 -69 -45 -31 -30 -57 -48 -57 -41 0 8 -7 11 -20 8 -11 -3 -20 -12 -20
-19 0 -8 -5 -14 -12 -14 -6 0 -8 -3 -5 -6 7 -7 -32 -41 -47 -42 -5 0 -12 -5
-16 -12 -10 -16 -69 -24 -84 -11 -7 6 -16 8 -20 4 -4 -4 -4 0 0 10 3 10 1 17
-6 17 -6 0 -8 5 -5 10 8 13 -1 13 -26 0 -22 -12 -25 -40 -6 -59 10 -11 7 -12
-18 -6 -16 3 -33 11 -36 17 -4 6 -8 5 -12 -3 -4 -14 -7 3 -9 74 0 31 6 44 31
68 22 19 27 29 17 29 -19 0 -21 16 -3 23 7 3 5 6 -5 6 -15 1 -22 -12 -20 -39
0 -3 -25 -5 -56 -5 -50 1 -57 3 -54 19 2 11 -1 15 -8 11 -6 -3 -9 -13 -8 -20
2 -8 -1 -14 -7 -14 -15 -1 -12 32 5 52 10 12 29 17 67 17 29 0 53 5 53 10 0 6
-4 10 -10 10 -5 0 -7 6 -4 13 3 9 22 13 54 12 35 -1 50 3 50 12 0 7 5 13 10
13 6 0 10 4 10 9 0 5 -25 3 -54 -5 -40 -11 -66 -12 -97 -5 -24 5 -47 7 -52 4
-11 -7 -28 17 -21 29 3 4 25 8 50 8 24 0 45 5 46 10 4 29 2 35 -12 36 -56 4
-56 4 -37 15 10 6 22 22 27 35 5 13 15 24 22 24 10 0 10 -2 -1 -9 -8 -5 -9
-11 -3 -15 5 -3 13 1 16 10 9 24 7 34 -7 34 -8 0 -22 15 -32 34 -16 30 -17 37
-5 52 11 13 14 45 12 142 -4 129 -17 182 -47 182 -7 0 -17 9 -20 20 -7 22 -63
50 -101 50 -33 0 -49 34 -34 71 7 16 16 29 21 29 15 0 6 64 -13 84 -22 24 -24
66 -3 66 8 0 15 5 15 10 0 6 9 10 21 10 11 0 18 4 14 9 -3 5 8 24 24 42 17 18
30 35 29 38 -2 22 5 31 25 31 13 0 28 5 34 11 17 17 94 19 111 3 8 -8 22 -12
33 -9 11 4 19 2 19 -6 0 -8 11 -10 34 -6 28 5 43 -1 83 -29 26 -19 53 -34 59
-34 15 0 37 -27 40 -49 12 -77 25 -96 112 -167 23 -18 32 -34 32 -55 0 -16 5
-29 10 -29 6 0 10 -13 10 -29 0 -16 7 -48 15 -71 8 -24 13 -46 9 -49 -9 -10
-28 -8 -36 4 -5 6 -8 3 -8 -7 0 -9 5 -20 10 -23 6 -3 10 -17 10 -29 0 -13 9
-34 19 -47 16 -20 22 -22 33 -11 11 11 10 15 -4 23 -10 6 -18 15 -18 21 0 7 4
7 14 -1 16 -14 26 4 26 50 0 16 11 46 24 67 25 39 25 28 2 202 -9 65 -26 129
-46 175 -10 22 -21 59 -25 82 -4 23 -13 47 -21 54 -8 6 -14 20 -14 31 0 10 -4
16 -10 13 -5 -3 -7 0 -4 8 3 8 -2 20 -10 27 -9 7 -13 16 -10 21 3 5 -3 6 -12
2 -12 -4 -15 -3 -10 5 4 7 2 12 -5 12 -7 0 -27 12 -46 26 -19 14 -42 27 -51
29 -9 1 -16 9 -14 18 2 10 -2 15 -10 12 -7 -3 -24 11 -37 30 -25 37 -65 50
-55 18 5 -15 3 -15 -10 1 -9 11 -16 16 -16 12 0 -4 -17 5 -37 21 -21 15 -52
36 -69 45 l-31 17 5 -27 c5 -24 4 -26 -11 -13 -10 7 -17 10 -17 6 0 -4 -7 -2
-15 5 -8 7 -13 15 -11 19 3 4 -4 7 -14 7 -11 0 -16 -5 -12 -15z m-43 -51 c3
-6 -1 -7 -9 -4 -18 7 -21 14 -7 14 6 0 13 -4 16 -10z m178 -280 c8 0 8 -3 0
-11 -13 -13 -43 -5 -43 12 0 6 7 8 16 5 9 -3 21 -6 27 -6z m-323 -520 c-8 -5
-28 -9 -45 -9 -26 0 -27 2 -10 9 11 5 31 9 45 9 20 1 22 -1 10 -9z m90 -70 c0
-5 -4 -10 -9 -10 -5 0 -16 -3 -25 -6 -11 -4 -16 -1 -16 10 0 10 9 16 25 16 14
0 25 -4 25 -10z m640 0 c0 -5 -2 -10 -4 -10 -3 0 -8 5 -11 10 -3 6 -1 10 4 10
6 0 11 -4 11 -10z m-673 -56 c-3 -3 -12 -4 -19 -1 -8 3 -5 6 6 6 11 1 17 -2
13 -5z m-10 -56 c-3 -8 -6 -5 -6 6 -1 11 2 17 5 13 3 -3 4 -12 1 -19z m22 -46
c13 -12 12 -22 -5 -112 -7 -39 -30 -70 -51 -70 -7 0 -13 -4 -13 -10 0 -5 -4
-10 -10 -10 -17 0 -50 -39 -50 -59 0 -10 7 -24 15 -31 11 -9 15 -9 15 -1 0 15
49 -20 50 -35 0 -6 9 -23 20 -37 11 -14 20 -34 20 -45 0 -11 7 -27 15 -36 17
-17 12 -22 -26 -24 -49 -3 -129 111 -148 211 -4 26 -14 54 -21 62 -7 9 -13 43
-14 76 -1 70 15 91 87 110 23 6 49 14 57 18 21 11 43 8 59 -7z"/>
<path d="M1050 2330 c19 -13 30 -13 30 0 0 6 -10 10 -22 10 -19 0 -20 -2 -8
-10z"/>
<path d="M1497 1634 c5 -14 1 -16 -23 -11 -16 3 -63 -1 -104 -10 -41 -8 -85
-17 -98 -19 -23 -5 -47 -48 -36 -65 7 -12 86 -1 131 17 43 18 101 17 138 -2
43 -22 106 -43 99 -33 -3 5 0 9 6 9 14 0 -67 108 -91 120 -25 14 -29 12 -22
-6z"/>
<path d="M1350 1522 c-44 -9 -75 -30 -84 -60 -6 -18 -11 -21 -21 -12 -10 9
-16 6 -25 -10 -6 -11 -8 -26 -4 -33 15 -26 47 -56 55 -51 4 2 25 -2 45 -11 46
-19 57 -19 21 1 -24 13 -26 17 -13 29 8 9 22 12 32 8 11 -4 15 -3 11 4 -6 10
19 28 35 25 4 -1 19 3 32 8 19 7 29 5 40 -5 12 -12 17 -12 36 5 13 11 27 17
31 14 12 -7 11 -2 -6 33 -24 47 -101 70 -185 55z m-6 -67 c3 -8 1 -15 -4 -15
-6 0 -10 7 -10 15 0 8 2 15 4 15 2 0 6 -7 10 -15z m116 5 c0 -5 -4 -10 -10
-10 -5 0 -10 5 -10 10 0 6 5 10 10 10 6 0 10 -4 10 -10z m-196 -45 c-4 -8 -8
-15 -10 -15 -2 0 -4 7 -4 15 0 8 4 15 10 15 5 0 7 -7 4 -15z m29 -2 c-7 -2
-13 -12 -13 -20 0 -9 -3 -14 -6 -10 -10 10 4 37 18 36 10 0 10 -2 1 -6z"/>
<path d="M1465 1330 c3 -5 10 -10 16 -10 5 0 9 5 9 10 0 6 -7 10 -16 10 -8 0
-12 -4 -9 -10z"/>
<path d="M1428 1323 c7 -3 16 -2 19 1 4 3 -2 6 -13 5 -11 0 -14 -3 -6 -6z"/>
<path d="M1711 1264 c-1 -12 -7 -24 -15 -27 -9 -4 -13 -16 -10 -34 2 -15 6
-52 8 -81 3 -50 15 -83 17 -49 2 19 5 36 9 40 8 9 9 129 1 148 -9 23 -10 23
-10 3z"/>
<path d="M1750 1259 c0 -5 5 -7 10 -4 6 3 10 8 10 11 0 2 -4 4 -10 4 -5 0 -10
-5 -10 -11z"/>
<path d="M1513 1131 c37 -33 48 -64 25 -75 -10 -5 -10 -7 0 -12 6 -3 12 -13
12 -22 1 -15 2 -15 11 1 6 9 9 33 7 53 -3 31 -9 40 -48 61 l-45 26 38 -32z"/>
<path d="M1415 1020 c-16 -4 -22 -8 -12 -9 41 -3 9 -52 -46 -71 -25 -8 -35
-16 -29 -22 6 -6 17 -5 31 3 16 11 23 11 32 2 10 -10 23 -1 60 40 27 29 48 55
49 60 0 9 -44 7 -85 -3z"/>
<path d="M1200 975 c0 -8 7 -15 16 -15 14 0 14 3 4 15 -7 8 -14 15 -16 15 -2
0 -4 -7 -4 -15z"/>
<path d="M1280 770 c-13 -8 -12 -10 3 -10 9 0 17 5 17 10 0 12 -1 12 -20 0z"/>
<path d="M1678 713 c-1 -27 -2 -68 -3 -93 -2 -69 20 -213 33 -218 20 -6 13
-68 -18 -166 -32 -101 -68 -172 -100 -201 -11 -10 -20 -22 -20 -27 0 -4 223
-8 495 -8 l495 0 0 99 0 98 -102 48 c-57 26 -125 56 -153 66 -91 32 -149 56
-217 89 -59 28 -70 38 -87 76 -13 28 -32 51 -52 62 -56 31 -80 54 -119 116
-25 40 -53 70 -78 84 -61 34 -72 30 -74 -25z"/>
</g>
</svg>
